<?xml version="1.0" standalone="no"?>
<!DOCTYPE svg PUBLIC "-//W3C//DTD SVG 20010904//EN"
 "http://www.w3.org/TR/2001/REC-SVG-20010904/DTD/svg10.dtd">
<svg version="1.0" xmlns="http://www.w3.org/2000/svg"
 width="301.000000pt" height="61.000000pt" viewBox="0 0 301.000000 61.000000"
 preserveAspectRatio="xMidYMid meet">

<g transform="translate(0.000000,61.000000) scale(0.100000,-0.100000)"
fill="#000000" stroke="none">
<path d="M387 593 c-60 -3 -69 -7 -79 -28 -8 -18 -7 -28 6 -46 23 -34 24 -375
0 -420 -14 -28 -14 -33 1 -55 14 -22 22 -25 67 -22 63 4 78 21 60 71 -14 39
-19 153 -8 164 15 15 34 -29 41 -95 9 -88 31 -141 60 -148 37 -9 59 -1 73 29
12 24 11 31 -1 51 -8 12 -20 53 -26 91 -6 40 -19 81 -31 98 l-21 28 20 43 c33
66 27 161 -12 210 -25 29 -51 35 -150 29z m73 -102 c25 -47 2 -156 -28 -137
-20 12 -12 156 9 156 5 0 13 -9 19 -19z"/>
<path d="M1983 585 c-25 -17 -31 -63 -12 -82 6 -6 30 -113 54 -238 24 -124 49
-233 56 -241 23 -27 40 8 65 132 13 64 26 120 29 122 6 6 10 -9 30 -103 29
-140 34 -155 55 -155 21 0 30 33 80 303 17 92 36 178 42 192 l11 24 18 -34
c16 -30 19 -58 19 -205 0 -137 -3 -177 -16 -202 -12 -24 -13 -36 -5 -54 22
-48 151 -23 151 29 0 7 -7 23 -16 36 -14 19 -17 53 -17 200 -1 155 1 179 17
204 22 33 11 71 -24 82 -31 10 -88 -3 -110 -25 -18 -18 -18 -18 -23 1 -6 23
-30 33 -61 25 -33 -8 -42 -40 -21 -72 14 -22 15 -34 4 -100 -6 -41 -15 -77
-20 -80 -15 -9 -33 79 -33 161 -1 77 -2 80 -28 89 -39 14 -99 -3 -109 -30 -5
-14 -2 -32 9 -50 18 -34 21 -139 5 -169 -10 -17 -13 -14 -24 25 -7 25 -13 82
-14 127 -1 45 -4 85 -7 89 -16 15 -84 15 -105 -1z"/>
<path d="M2583 582 c-17 -17 -16 -34 2 -58 11 -15 14 -57 14 -209 0 -152 -3
-194 -14 -209 -18 -24 -19 -58 -3 -74 16 -16 120 -16 136 0 17 17 15 65 -3 72
-12 4 -15 24 -15 86 0 72 2 81 18 78 11 -2 18 -14 20 -38 2 -19 7 -39 12 -44
29 -29 44 201 16 240 -14 18 -15 18 -21 -11 -11 -50 -15 -57 -28 -53 -18 7
-22 137 -4 144 25 9 66 -15 83 -48 22 -44 24 -45 34 -28 13 21 11 88 -3 128
l-12 34 -109 1 c-79 2 -113 -2 -123 -11z"/>
<path d="M2883 590 c-37 -15 -42 -38 -21 -99 18 -49 19 -75 15 -211 -2 -99 -9
-167 -18 -188 -19 -46 -4 -66 54 -70 84 -6 104 24 71 103 -13 31 -15 70 -12
206 2 117 7 172 16 181 6 6 12 25 12 40 0 21 -6 31 -26 38 -30 12 -61 12 -91
0z"/>
<path d="M17 583 c-12 -11 -7 -57 8 -77 18 -23 20 -201 4 -331 -5 -44 -11 -96
-12 -115 l-2 -35 98 -3 c96 -3 98 -2 126 26 55 55 67 167 26 247 -24 48 -24
51 -9 102 18 63 11 131 -18 168 -18 24 -25 25 -117 25 -54 0 -101 -3 -104 -7z
m147 -89 c11 -30 6 -121 -7 -133 -22 -17 -27 -3 -27 76 0 56 3 73 14 73 8 0
17 -7 20 -16z m4 -236 c14 -14 16 -116 3 -137 -5 -8 -16 -11 -25 -8 -13 5 -16
22 -16 82 0 76 9 92 38 63z"/>
<path d="M940 545 c0 -9 8 -28 18 -42 15 -23 17 -52 17 -205 0 -128 -3 -180
-12 -189 -16 -16 -17 -61 -1 -77 16 -16 70 -16 86 0 16 16 15 50 -3 84 -17 33
-20 141 -5 164 12 19 10 23 97 -138 36 -67 71 -121 77 -119 17 6 25 71 25 222
1 133 0 141 -20 154 -18 11 -23 11 -30 -1 -5 -7 -9 -19 -9 -26 0 -22 -18 -4
-45 46 -21 37 -42 57 -104 95 -87 52 -91 54 -91 32z"/>
<path d="M891 505 c0 -5 6 -32 15 -60 36 -117 11 -284 -51 -351 -41 -44 -98
-47 -143 -9 -68 57 -99 211 -67 338 21 84 13 101 -11 22 -23 -82 -16 -231 15
-303 30 -67 80 -112 126 -112 103 0 184 187 155 356 -10 62 -37 144 -39 119z"/>
<path d="M861 430 c0 -8 4 -24 9 -35 l9 -20 0 20 c0 11 -4 27 -9 35 -9 13 -10
13 -9 0z"/>
<path d="M683 415 c-3 -9 -3 -18 -1 -21 3 -3 8 4 11 16 6 23 -1 27 -10 5z"/>
<path d="M671 364 c0 -11 3 -14 6 -6 3 7 2 16 -1 19 -3 4 -6 -2 -5 -13z"/>
<path d="M882 310 c-4 -110 -57 -191 -116 -176 -30 7 -70 58 -85 106 l-11 35
5 -34 c8 -51 44 -117 72 -130 35 -16 48 -14 81 14 39 32 64 114 59 191 l-3 59
-2 -65z"/>
<path d="M750 309 c0 -13 4 -30 9 -38 14 -21 41 -5 41 24 0 16 -4 24 -10 20
-6 -4 -17 -1 -25 5 -12 10 -15 8 -15 -11z"/>
<path d="M1320 238 c-1 -55 -7 -110 -15 -133 -27 -74 -27 -75 80 -77 52 -1
107 -2 122 -2 25 -1 29 4 40 54 16 67 13 115 -6 115 -8 0 -19 -16 -26 -35 -13
-38 -53 -65 -84 -55 -14 4 -20 19 -25 64 -4 33 -4 70 -1 83 5 20 0 29 -34 51
-22 15 -43 27 -46 27 -3 0 -5 -42 -5 -92z"/>
<path d="M1450 226 c0 -14 4 -27 9 -31 12 -7 25 31 16 45 -11 18 -25 10 -25
-14z"/>
<path d="M729 223 c10 -20 40 -43 55 -43 9 0 46 43 46 54 0 6 -7 0 -16 -12
-19 -28 -47 -28 -75 1 l-21 22 11 -22z"/>
<path d="M1636 111 c-39 -43 -3 -91 70 -91 73 0 99 25 52 48 -13 6 -42 22 -64
36 -40 25 -42 25 -58 7z"/>
</g>
</svg>
