<svg height="480pt" viewBox="0 -104 480 480" width="480pt" xmlns="http://www.w3.org/2000/svg"><path d="m456 0h-432c-13.253906 0-24 10.746094-24 24v80c0 4.417969 3.582031 8 8 8 13.253906 0 24 10.746094 24 24s-10.746094 24-24 24c-4.417969 0-8 3.582031-8 8v80c0 13.253906 10.746094 24 24 24h432c13.253906 0 24-10.746094 24-24v-80c0-4.417969-3.582031-8-8-8-13.253906 0-24-10.746094-24-24s10.746094-24 24-24c4.417969 0 8-3.582031 8-8v-80c0-13.253906-10.746094-24-24-24zm8 96.800781c-18.644531 3.785157-32.039062 20.175781-32.039062 39.199219s13.394531 35.414062 32.039062 39.199219v72.800781c0 4.417969-3.582031 8-8 8h-432c-4.417969 0-8-3.582031-8-8v-72.800781c18.644531-3.785157 32.039062-20.175781 32.039062-39.199219s-13.394531-35.414062-32.039062-39.199219v-72.800781c0-4.417969 3.582031-8 8-8h432c4.417969 0 8 3.582031 8 8zm0 0"/><path d="m264 88h-17.753906l-6.484375-25.945312c-1.042969-4.152344-5.167969-6.75-9.363281-5.894532l-38.398438 7.679688-38.398438-7.679688c-4.1875-.835937-8.289062 1.757813-9.328124 5.894532l-6.519532 25.945312h-17.753906c-4.417969 0-8 3.582031-8 8v112c0 4.417969 3.582031 8 8 8h144c4.417969 0 8-3.582031 8-8v-112c0-4.417969-3.582031-8-8-8zm-96 112h-40v-24h40zm0-40h-40v-16h40zm0-32h-40v-24h40zm-13.753906-40 3.664062-14.664062 26.089844 5.222656v9.441406zm45.753906 48v64h-16v-96h16zm0-48v-9.441406l26.089844-5.222656 3.664062 14.664062zm56 112h-40v-24h40zm0-40h-40v-16h40zm0-32h-40v-24h40zm0 0"/><path d="m336 64h16v16h-16zm0 0"/><path d="m336 96h16v16h-16zm0 0"/><path d="m336 128h16v16h-16zm0 0"/><path d="m336 160h16v16h-16zm0 0"/><path d="m336 192h16v16h-16zm0 0"/><path d="m336 224h16v16h-16zm0 0"/><path d="m336 32h16v16h-16zm0 0"/></svg>